<?xml version="1.0" standalone="no"?>
<!DOCTYPE svg PUBLIC "-//W3C//DTD SVG 1.1//EN" "http://www.w3.org/Graphics/SVG/1.1/DTD/svg11.dtd" >
<svg xmlns="http://www.w3.org/2000/svg">
<metadata></metadata>
<defs>
<font id="bentonsanscondblack" horiz-adv-x="1120" >
<font-face units-per-em="2048" ascent="1612" descent="-436" />
<missing-glyph horiz-adv-x="483" />
<glyph unicode="&#xfb01;" horiz-adv-x="1226" d="M25 827v269h153v69q0 58 8.5 106t32 96t61.5 81t102 53.5t148 20.5q133 0 177 -11v-270q-32 8 -64 8q-48 0 -72 -25t-24 -81v-47h151v-269h-151v-827h-369v827h-153zM758 0v1096h370v-1096h-370zM758 1198v303h370v-303h-370z" />
<glyph unicode="&#xfb02;" horiz-adv-x="1226" d="M25 827v269h153v69q0 58 8.5 106t32 96t61.5 81t102 53.5t148 20.5q133 0 177 -11v-270q-32 8 -64 8q-48 0 -72 -25t-24 -81v-47h151v-269h-151v-827h-369v827h-153zM758 0v1516h370v-1516h-370z" />
<glyph horiz-adv-x="0" />
<glyph horiz-adv-x="682" />
<glyph unicode=" "  horiz-adv-x="483" />
<glyph unicode="&#x09;" horiz-adv-x="483" />
<glyph unicode="&#xa0;" horiz-adv-x="483" />
<glyph unicode="!" horiz-adv-x="673" d="M117 1516h452l-73 -1047h-306zM145 0v334h396v-334h-396z" />
<glyph unicode="&#x22;" horiz-adv-x="876" d="M88 1380v136h311v-136l-28 -422h-254zM477 1380v136h311v-136l-28 -422h-254z" />
<glyph unicode="#" horiz-adv-x="1378" d="M25 377v280h231l37 201h-195v281h246l68 377h329l-65 -377h135l68 377h329l-65 -377h211v-281h-262l-37 -201h223v-280h-274l-64 -377h-332l64 377h-133l-66 -377h-332l64 377h-180zM586 651h139l39 213h-139z" />
<glyph unicode="$" horiz-adv-x="1204" d="M41 444l321 88q35 -116 96 -180.5t160 -64.5q75 0 119.5 33.5t44.5 93.5q0 43 -23.5 76t-63.5 55.5t-92 41.5t-109.5 39t-115 43.5t-109.5 59t-92 81t-63.5 114.5t-23.5 155q0 173 102.5 286.5t284.5 145.5v166h256v-166q152 -30 244.5 -131.5t144.5 -257.5l-309 -118 q-35 100 -94.5 157.5t-136.5 57.5q-63 0 -97 -30t-34 -81q0 -55 38.5 -94t99.5 -64t135 -48.5t148 -57.5t135 -80.5t99.5 -127t38.5 -187.5q0 -171 -104 -292.5t-308 -152.5v-194h-256v196q-333 58 -436 438z" />
<glyph unicode="%" horiz-adv-x="1978" d="M31 1024q0 251 99 379.5t280 128.5q182 0 280 -128t98 -380q0 -253 -97.5 -381.5t-280.5 -128.5q-182 0 -280.5 128.5t-98.5 381.5zM332 1024q0 -142 15 -197t63 -55q26 0 41.5 13t23.5 47t10 75.5t2 116.5q0 142 -14 193t-63 51q-50 0 -64 -50.5t-14 -193.5zM453 0 l768 1516h303l-768 -1516h-303zM1190 494q0 251 98.5 379t280.5 128q183 0 281 -127.5t98 -379.5q0 -253 -98 -381.5t-281 -128.5q-182 0 -280.5 128.5t-98.5 381.5zM1491 494q0 -142 15.5 -197t62.5 -55q50 0 64 53.5t14 198.5q0 141 -14.5 192t-63.5 51q-50 0 -64 -50 t-14 -193z" />
<glyph unicode="&#x26;" horiz-adv-x="1349" d="M8 365q0 70 16.5 130.5t42 104.5t66 84.5t79.5 68t91 56.5q-82 185 -82 348q0 176 113 281.5t305 105.5q101 0 178 -27.5t120.5 -75t65 -104t21.5 -120.5q0 -67 -18 -127t-45 -104t-71 -86.5t-83.5 -71t-93.5 -62.5q11 -17 31.5 -46t27.5 -40q65 -87 125 -150 q42 118 51 261h312q-34 -268 -117 -443q94 -46 207 -55v-313q-250 6 -428 100q-157 -109 -385 -109q-255 0 -392 105t-137 289zM371 412q0 -88 49.5 -132t130.5 -44q70 0 131 28q-81 84 -168 203q-28 35 -78 106q-65 -71 -65 -161zM557 1180q0 -84 45 -201q117 89 117 217 q0 39 -18.5 65.5t-55.5 26.5t-62.5 -26.5t-25.5 -81.5z" />
<glyph unicode="'" horiz-adv-x="491" d="M88 1380v136h315v-136l-30 -422h-256z" />
<glyph unicode="(" horiz-adv-x="747" d="M55 580q0 561 445 999l217 -160q-279 -410 -279 -839q0 -233 77.5 -456.5t207.5 -389.5l-223 -156q-445 435 -445 1002z" />
<glyph unicode=")" horiz-adv-x="747" d="M25 -266q284 407 284 844q0 231 -75.5 453t-202.5 388l217 160q444 -431 444 -1001q0 -558 -442 -1000z" />
<glyph unicode="*" horiz-adv-x="1005" d="M51 969v225l320 -35l-195 254l203 117l123 -285l127 285l202 -117l-188 -252l311 33v-225l-309 30l186 -247l-200 -117l-129 280l-123 -280l-201 117l182 247z" />
<glyph unicode="+" horiz-adv-x="1187" d="M115 559v303h323v385h312v-385h323v-303h-323v-385h-312v385h-323z" />
<glyph unicode="," horiz-adv-x="509" d="M70 0v360h370v-319l-153 -281h-174l102 240h-145z" />
<glyph unicode="-" horiz-adv-x="655" d="M59 504v262h535v-262h-535z" />
<glyph unicode="." horiz-adv-x="509" d="M70 0v360h370v-360h-370z" />
<glyph unicode="/" horiz-adv-x="1167" d="M18 0l748 1516h381l-748 -1516h-381z" />
<glyph unicode="0" horiz-adv-x="1249" d="M53 758q0 388 147.5 587t422.5 199q276 0 422.5 -198.5t146.5 -587.5t-146.5 -588t-422.5 -199q-275 0 -422.5 199t-147.5 588zM432 758q0 -260 45.5 -369.5t145.5 -109.5q102 0 146 108.5t44 370.5q0 259 -44 364t-146 105q-103 0 -147 -104.5t-44 -364.5z" />
<glyph unicode="1" horiz-adv-x="860" d="M33 0v303h231v868q-47 -30 -109.5 -49.5t-117.5 -19.5v315q151 6 235 99h363v-1213h203v-303h-805z" />
<glyph unicode="2" horiz-adv-x="1112" d="M29 0v33q0 149 36 271.5t93.5 203.5t127.5 147.5t139.5 118.5t127 101.5t93.5 111t36 133.5q0 48 -28.5 75.5t-82.5 27.5q-64 0 -125.5 -52t-105.5 -153l-299 135q40 90 89.5 158.5t116.5 122.5t155 82t194 28q216 0 335.5 -113t119.5 -294q0 -97 -31.5 -182t-82.5 -147 t-112.5 -117.5t-124 -102t-114 -90.5t-85.5 -94t-36 -101h584v-303h-1020z" />
<glyph unicode="3" horiz-adv-x="1134" d="M-8 319l295 136q39 -89 100.5 -139t138.5 -50q87 0 137 50t50 124q0 114 -72.5 163.5t-214.5 49.5h-78v279h88q97 0 151.5 23t72.5 60.5t18 98.5q0 57 -33 90t-102 33t-134 -41.5t-110 -110.5l-250 170q196 289 526 289q210 0 341 -104t131 -281q0 -129 -68 -222 t-188 -128q290 -83 290 -379q0 -218 -148.5 -338.5t-387.5 -120.5q-199 0 -340.5 94.5t-212.5 253.5z" />
<glyph unicode="4" horiz-adv-x="1236" d="M27 295v260l579 961h406v-941h205v-280h-205v-295h-365v295h-620zM383 575h270v453h-2z" />
<glyph unicode="5" horiz-adv-x="1118" d="M2 319l295 136q39 -89 101 -139t139 -50q94 0 140 54t46 182q0 235 -186 235q-51 0 -105 -32.5t-88 -86.5l-262 58l51 840h862l-18 -320h-545l-22 -285q36 48 103.5 80.5t164.5 32.5q208 0 311 -132t103 -380q0 -256 -143 -398.5t-394 -142.5q-199 0 -340.5 94.5 t-212.5 253.5z" />
<glyph unicode="6" horiz-adv-x="1165" d="M53 731q0 173 29.5 310.5t81 231t125.5 155t160.5 89t187.5 27.5q320 0 467 -301l-301 -147q-72 149 -174 149q-95 0 -146.5 -81.5t-64.5 -280.5q134 104 303 104q187 0 302.5 -128t115.5 -367q0 -234 -142.5 -377.5t-384.5 -143.5q-269 0 -414 194t-145 566zM416 621 q10 -198 61.5 -281.5t155.5 -83.5q77 0 114 59.5t37 157.5q0 102 -34 158.5t-121 56.5q-63 0 -111.5 -15t-101.5 -52z" />
<glyph unicode="7" horiz-adv-x="962" d="M-4 1196v320h969v-297l-471 -1219h-388l469 1196h-579z" />
<glyph unicode="8" horiz-adv-x="1159" d="M27 387q0 125 77 228.5t193 170.5q-53 36 -86.5 66t-65 73.5t-46.5 100.5t-15 131q0 164 130.5 275.5t365.5 111.5q123 0 220 -31.5t156 -85.5t89 -122.5t30 -147.5q0 -112 -57.5 -212t-153.5 -157q51 -29 85 -52t72 -59t60.5 -74.5t37 -93.5t14.5 -122 q0 -194 -146.5 -305t-406.5 -111q-267 0 -410 111.5t-143 304.5zM403 408q0 -69 44.5 -115.5t130.5 -46.5q85 0 129.5 46t44.5 116q0 68 -45.5 118.5t-149.5 102.5q-154 -100 -154 -221zM449 1128q0 -68 37.5 -112.5t111.5 -83.5q117 82 117 190q0 59 -31.5 97t-99.5 38 t-101.5 -35.5t-33.5 -93.5z" />
<glyph unicode="9" horiz-adv-x="1165" d="M27 1024q0 232 145.5 376t380.5 144q279 0 419 -192t140 -568q0 -173 -29.5 -310.5t-81 -231t-125.5 -155t-160.5 -89t-187.5 -27.5q-320 0 -467 301l301 148q78 -160 175 -160q95 0 146.5 85.5t64.5 287.5q-135 -105 -304 -105q-187 0 -302 128t-115 368zM381 1042 q0 -101 34.5 -158t121.5 -57q63 0 111.5 15t101.5 53q-10 195 -62.5 274.5t-155.5 79.5q-151 0 -151 -207z" />
<glyph unicode=":" horiz-adv-x="534" d="M82 0v360h371v-360h-371zM82 735v361h371v-361h-371z" />
<glyph unicode=";" horiz-adv-x="534" d="M82 0v360h371v-313l-158 -287h-174l102 240h-141zM82 735v361h371v-361h-371z" />
<glyph unicode="&#x3c;" horiz-adv-x="1187" d="M131 551v225l922 445v-312l-555 -245l555 -246v-312z" />
<glyph unicode="=" horiz-adv-x="1187" d="M117 315v273h952v-273h-952zM117 754v272h952v-272h-952z" />
<glyph unicode="&#x3e;" horiz-adv-x="1187" d="M135 106v312l555 246l-555 245v312l922 -445v-225z" />
<glyph unicode="?" horiz-adv-x="1062" d="M63 1155q62 183 195 286t330 103q204 0 312 -100.5t108 -255.5q0 -65 -13.5 -118t-42 -97t-51.5 -71t-63 -68l-13 -13q-72 -74 -101.5 -116.5t-42.5 -95t-13 -144.5h-314q-6 49 -6 123q0 59 15 111t46 97t56 73.5t66 70.5l18 18q54 58 81 101.5t27 93.5q0 43 -26 65.5 t-70 22.5q-63 0 -113 -56.5t-79 -135.5zM311 0v334h396v-334h-396z" />
<glyph unicode="@" horiz-adv-x="1554" d="M61 756q0 356 198.5 572t520.5 216q212 0 374 -94.5t250.5 -268.5t88.5 -403q0 -222 -96.5 -342.5t-284.5 -120.5q-200 0 -268 164q-100 -147 -254 -147q-114 0 -174.5 95t-55.5 259q4 245 93 382.5t231 137.5q130 0 186 -106l11 88h274l-78 -598q-9 -73 9 -100t73 -27 q80 0 127 75t47 236q0 296 -150.5 459.5t-406.5 163.5q-257 0 -404 -165.5t-147 -473.5q0 -647 547 -647q100 0 195.5 23.5t160.5 68.5l72 -115q-74 -55 -194.5 -86t-241.5 -31q-335 0 -519 203t-184 582zM643 719q-3 -82 12.5 -121t63.5 -39q35 0 82 37l43 340 q-35 35 -78 35q-113 0 -123 -252z" />
<glyph unicode="A" horiz-adv-x="1271" d="M8 0l443 1522h370l443 -1522h-383l-64 256h-389l-66 -256h-354zM502 549h243l-26 115q-10 40 -26 102t-25 97.5t-20 87t-19 100.5h-4q-10 -64 -23.5 -120.5t-36.5 -139t-35 -127.5z" />
<glyph unicode="B" horiz-adv-x="1259" d="M111 0v1516h555q78 0 142 -8t131 -32.5t112.5 -64.5t74.5 -109.5t29 -162.5q0 -282 -248 -351v-4q65 -13 112 -36t86.5 -64.5t60 -108.5t20.5 -159q0 -94 -30.5 -168t-79.5 -119.5t-117 -75.5t-137 -41.5t-146 -11.5h-565zM481 293h166q176 0 176 176q0 174 -180 174 h-162v-350zM481 903h158q84 0 122 36.5t38 117.5t-37.5 116t-120.5 35h-160v-305z" />
<glyph unicode="C" horiz-adv-x="1259" d="M51 758q0 205 45.5 358t129 245.5t193.5 137.5t247 45q254 0 380 -138.5t158 -404.5l-358 -63q-23 153 -64 218t-129 65q-115 0 -167 -113.5t-52 -349.5q0 -237 54 -355t169 -118q91 0 135.5 67t69.5 236l359 -58q-17 -98 -43.5 -178t-72 -152t-106 -121t-148.5 -77.5 t-196 -28.5q-137 0 -245.5 45t-189.5 137.5t-125 245t-44 357.5z" />
<glyph unicode="D" horiz-adv-x="1310" d="M111 0v1516h428q128 0 230 -19t196.5 -70.5t157 -134t100 -216.5t37.5 -312q0 -130 -19.5 -237.5t-54 -186t-86 -138t-111.5 -97.5t-135 -62t-150.5 -33.5t-164.5 -9.5h-428zM492 315h79q178 0 242 96.5t64 352.5q0 246 -64.5 339t-243.5 93h-77v-881z" />
<glyph unicode="E" horiz-adv-x="1095" d="M111 0v1516h915v-320h-534v-264h380v-299h-380v-324h559v-309h-940z" />
<glyph unicode="F" horiz-adv-x="1028" d="M111 0v1516h895v-320h-514v-309h364v-299h-364v-588h-381z" />
<glyph unicode="G" horiz-adv-x="1327" d="M51 762q0 377 158.5 579.5t456.5 202.5q229 0 357 -125.5t177 -417.5l-346 -69q-28 162 -75 225.5t-126 63.5q-35 0 -62.5 -8.5t-58 -37t-51 -76.5t-34 -133t-13.5 -200q0 -116 12.5 -202t33 -139t51.5 -85t64.5 -43.5t76.5 -11.5q168 0 211 207h-185v280h529v-772h-275 v188h-4q-25 -80 -116 -146.5t-218 -66.5q-273 0 -418 207.5t-145 579.5z" />
<glyph unicode="H" horiz-adv-x="1353" d="M111 0v1516h381v-572h370v572h381v-1516h-381v633h-370v-633h-381z" />
<glyph unicode="I" horiz-adv-x="622" d="M121 0v1516h381v-1516h-381z" />
<glyph unicode="J" horiz-adv-x="962" d="M8 90l146 279q126 -68 229 -68q59 0 86 33.5t27 111.5v1070h381v-1113q0 -199 -108 -312.5t-335 -113.5q-242 0 -426 113z" />
<glyph unicode="K" horiz-adv-x="1280" d="M111 0v1516h376v-592q71 134 117 209l225 383h408l-399 -601l438 -915h-414l-272 590l-103 -141v-449h-376z" />
<glyph unicode="L" horiz-adv-x="1077" d="M111 0v1516h381v-1207h552v-309h-933z" />
<glyph unicode="M" horiz-adv-x="1603" d="M111 0v1516h487l207 -988h2l188 988h496v-1516h-361v977h-4q-3 -92 -63 -367l-139 -610h-279l-135 608q-59 276 -66 379h-4v-987h-329z" />
<glyph unicode="N" horiz-adv-x="1359" d="M111 0v1516h381l284 -558q63 -124 119 -256h4v814h344v-1516h-352l-336 614q-56 104 -96 195h-4v-809h-344z" />
<glyph unicode="O" horiz-adv-x="1359" d="M51 758q0 163 33.5 296t91.5 223t138.5 151t171.5 88.5t194 27.5q102 0 193 -27.5t171 -88.5t138 -151t91.5 -223t33.5 -296t-33.5 -296t-91.5 -223t-138 -151.5t-171 -89t-193 -27.5q-103 0 -194 27.5t-171.5 89t-138.5 151.5t-91.5 223t-33.5 296zM434 758 q0 -230 61.5 -351.5t184.5 -121.5q244 0 244 473q0 463 -244 463q-246 0 -246 -463z" />
<glyph unicode="P" horiz-adv-x="1193" d="M111 0v1516h475q90 0 167 -14t151.5 -50t126 -93t83 -149.5t31.5 -212.5q0 -124 -34 -219t-87.5 -151.5t-129.5 -92.5t-150.5 -48.5t-159.5 -12.5h-99v-473h-374zM485 770h109q104 0 146 53t42 166q0 110 -42.5 160.5t-147.5 50.5h-107v-430z" />
<glyph unicode="Q" horiz-adv-x="1359" d="M49 758q0 163 33.5 296t91.5 223t138.5 151t171.5 88.5t194 27.5q102 0 193 -27.5t171 -88.5t138 -151t91.5 -223t33.5 -296q0 -171 -36 -308t-100 -227.5t-146 -146t-181 -78.5q8 -27 17.5 -45t26 -30.5t31 -19t45.5 -10t56.5 -4t75.5 -0.5h82v-305h-234 q-128 0 -220 32.5t-142.5 92t-73.5 132t-25 165.5q-197 57 -314.5 245.5t-117.5 506.5zM432 758q0 -230 61.5 -351.5t184.5 -121.5q244 0 244 473q0 463 -244 463q-246 0 -246 -463z" />
<glyph unicode="R" horiz-adv-x="1239" d="M111 0v1516h493q261 0 401 -118.5t140 -381.5q0 -140 -61 -245.5t-169 -156.5l277 -614h-393l-234 516h-84v-516h-370zM481 803h113q97 0 142.5 47.5t45.5 157.5q0 106 -45 149t-143 43h-113v-397z" />
<glyph unicode="S" horiz-adv-x="1245" d="M49 336l305 156q53 -96 129 -158t168 -62q78 0 119 35t41 96q0 29 -14 54.5t-33.5 44t-56 38t-65.5 32.5t-79 32q-165 66 -233 108q-187 114 -219 301q-7 42 -7 87q0 199 145 321.5t372 122.5q367 0 538 -348l-293 -162q-103 199 -254 199q-65 0 -100 -31.5t-35 -83.5 q0 -33 16 -61t50 -51.5t68 -41t89 -40.5q163 -68 219 -98q186 -101 240 -253q25 -69 25 -153q0 -89 -34 -168.5t-98.5 -143t-168 -100.5t-232.5 -37q-419 0 -602 365z" />
<glyph unicode="T" horiz-adv-x="1118" d="M23 1196v320h1073v-320h-346v-1196h-381v1196h-346z" />
<glyph unicode="U" horiz-adv-x="1261" d="M88 537v979h381v-961q0 -141 40 -200.5t132 -59.5q91 0 130.5 59.5t39.5 198.5v963h363v-977q0 -284 -128.5 -424t-410.5 -140t-414.5 141.5t-132.5 420.5z" />
<glyph unicode="V" horiz-adv-x="1230" d="M8 1516h383l154 -666q45 -189 78 -375h4q27 152 80 371l161 670h355l-422 -1522h-371z" />
<glyph unicode="W" horiz-adv-x="1687" d="M14 1516h367l94 -525q35 -188 60 -381h4q22 178 59 379l92 527h338l94 -533q42 -223 58 -375h4q23 189 57 369l96 539h336l-338 -1522h-331l-158 887h-4l-158 -887h-332z" />
<glyph unicode="X" horiz-adv-x="1280" d="M35 0l399 791l-366 725h413l181 -416l167 416h369l-358 -711l403 -805h-407l-220 492l-206 -492h-375z" />
<glyph unicode="Y" horiz-adv-x="1228" d="M-8 1516h389l240 -592h4l239 592h373l-434 -936v-580h-381v580z" />
<glyph unicode="Z" horiz-adv-x="1153" d="M33 0v272l616 924h-571v320h1024v-283l-604 -924h604v-309h-1069z" />
<glyph unicode="[" horiz-adv-x="811" d="M98 -410v1926h684v-265h-305v-1401h305v-260h-684z" />
<glyph unicode="\" horiz-adv-x="1126" d="M-2 1516h381l747 -1516h-381z" />
<glyph unicode="]" horiz-adv-x="811" d="M29 -150h305v1401h-305v265h684v-1926h-684v260z" />
<glyph unicode="^" horiz-adv-x="1019" d="M162 1208l225 346h246l223 -346h-211l-137 125l-135 -125h-211z" />
<glyph unicode="_" horiz-adv-x="903" d="M-20 -74h944v-260h-944v260z" />
<glyph unicode="`" horiz-adv-x="1024" d="M164 1554h350l164 -350h-256z" />
<glyph unicode="a" horiz-adv-x="1044" d="M27 281q0 329 579 426v32q0 49 -17 70.5t-67 21.5q-130 0 -291 -102l-159 221q99 80 234.5 124t289.5 44q195 0 282 -89.5t87 -289.5v-473q0 -187 26 -266h-364q-21 68 -21 150q-112 -162 -309 -162q-55 0 -102 15.5t-85.5 48.5t-60.5 91.5t-22 137.5zM385 352 q0 -39 21.5 -60.5t56.5 -21.5q75 0 143 58v192q-115 -26 -168 -66t-53 -102z" />
<glyph unicode="b" d="M88 0v1513h371v-563q106 168 276 168q163 0 254.5 -142.5t91.5 -426.5t-92.5 -424.5t-257.5 -140.5q-176 0 -272 135v-119h-371zM459 334q35 -33 63 -49.5t64 -16.5q68 0 95.5 65.5t27.5 213.5q0 140 -26.5 200t-98.5 60q-58 0 -125 -72v-401z" />
<glyph unicode="c" horiz-adv-x="1009" d="M37 547q0 124 29.5 223.5t78.5 163t115.5 106t136 60.5t144.5 18q85 0 153 -19t115.5 -51.5t83 -81.5t57 -103t37.5 -122l-325 -73q-19 93 -47 130.5t-78 37.5q-69 0 -99 -67.5t-30 -221.5q0 -156 27 -226.5t100 -70.5q106 0 137 182l317 -76q-18 -80 -51 -145.5 t-87 -119.5t-135.5 -84t-185.5 -30q-77 0 -146.5 18.5t-134 61t-111 107t-74 162.5t-27.5 221z" />
<glyph unicode="d" d="M39 543q0 285 93 430t257 145q178 0 273 -139v537h370v-1250q0 -186 29 -266h-379q-8 20 -14 66t-6 73q-100 -155 -275 -155q-166 0 -257 137.5t-91 421.5zM412 545q0 -144 26.5 -209.5t98.5 -65.5q55 0 125 70v403q-62 66 -127 66q-69 0 -96 -60t-27 -204z" />
<glyph unicode="e" horiz-adv-x="1036" d="M37 547q0 124 30.5 224t79.5 163.5t115 106t133.5 60t139.5 17.5q78 0 144.5 -19t126.5 -64t102 -113t66.5 -171.5t24.5 -234.5v-67h-600q10 -107 51.5 -154t114.5 -47q64 0 127.5 35t98.5 77l208 -176q-172 -207 -450 -207q-108 0 -197.5 31t-161.5 96.5t-112.5 178 t-40.5 264.5zM401 649h265q-7 106 -39 148.5t-92 42.5q-113 0 -134 -191z" />
<glyph unicode="f" horiz-adv-x="761" d="M25 827v269h153v69q0 51 4.5 89t17 82t38.5 75t66 57.5t102.5 40t144.5 13.5q153 0 197 -11v-270q-32 8 -84 8q-28 0 -45.5 -3t-36 -13t-27 -32.5t-8.5 -57.5v-47h192v-269h-192v-827h-369v827h-153z" />
<glyph unicode="g" horiz-adv-x="1110" d="M-10 -178q0 127 157 209q-84 55 -84 143q0 61 42.5 121.5t109.5 105.5q-164 108 -164 320q0 182 120.5 289.5t336.5 107.5q218 0 332 -108q48 48 119 79.5t131 36.5v-297q-88 0 -144 -8q10 -55 10 -100q0 -184 -117 -289.5t-331 -105.5q-74 0 -135 12q-15 -18 -15 -35 q0 -25 17.5 -32.5t70.5 -10.5l127 -6q270 -13 378 -86t108 -231q0 -163 -163 -255t-429 -92q-133 0 -226.5 15.5t-148 46.5t-78.5 72.5t-24 97.5zM317 -111q0 -62 49.5 -87t163.5 -25q91 0 147 26t56 72q0 32 -12 47t-59 25.5t-146 15.5l-156 8q-16 0 -24 2q-19 -42 -19 -84 zM399 711q0 -164 113 -164q111 0 111 164q0 161 -111 161q-113 0 -113 -161z" />
<glyph unicode="h" d="M88 0v1516h371v-568q41 66 124 118t193 52q264 0 264 -282v-836h-370v713q0 94 -70 94q-57 0 -141 -70v-737h-371z" />
<glyph unicode="i" horiz-adv-x="567" d="M98 0v1096h371v-1096h-371zM98 1198v303h371v-303h-371z" />
<glyph unicode="j" horiz-adv-x="567" d="M-96 -143q27 -9 82 -9q59 0 85.5 31.5t26.5 97.5v1119h371v-1166q0 -62 -8 -108.5t-31.5 -93t-64 -76t-109 -48t-162.5 -18.5q-39 0 -109.5 4t-80.5 7v260zM98 1198v303h371v-303h-371z" />
<glyph unicode="k" horiz-adv-x="1062" d="M88 0v1516h365v-801q28 71 77 151l134 230h372l-282 -410l299 -686h-375l-158 387l-67 -100v-287h-365z" />
<glyph unicode="l" horiz-adv-x="567" d="M98 0v1516h371v-1516h-371z" />
<glyph unicode="m" horiz-adv-x="1667" d="M88 0v1096h371v-148q40 64 122.5 117t180.5 53q109 0 169.5 -41.5t80.5 -128.5q43 65 125.5 117.5t179.5 52.5q135 0 202.5 -76.5t67.5 -220.5v-821h-370v713q0 49 -13.5 71.5t-52.5 22.5q-49 0 -129 -70v-737h-371v713q0 50 -12.5 72t-50.5 22q-50 0 -129 -70v-737h-371 z" />
<glyph unicode="n" d="M88 0v1096h371v-148q41 66 124 118t193 52q264 0 264 -282v-836h-370v713q0 94 -70 94q-57 0 -141 -70v-737h-371z" />
<glyph unicode="o" horiz-adv-x="1091" d="M37 547q0 124 28.5 223t76.5 163t114.5 106.5t138 60.5t150.5 18t150 -18t137.5 -60.5t114.5 -106.5t77 -163t29 -223q0 -123 -29 -221t-77 -162.5t-114.5 -107t-137.5 -61t-150 -18.5t-150 18.5t-137.5 61t-114.5 107t-77 162.5t-29 221zM408 547q0 -151 30 -221 t107 -70q76 0 106.5 66.5t30.5 224.5q0 148 -30 215t-107 67q-75 0 -106 -64t-31 -218z" />
<glyph unicode="p" d="M88 -410v1506h371v-146q106 168 276 168q163 0 254.5 -142.5t91.5 -426.5t-92.5 -424.5t-257.5 -140.5q-176 0 -272 135v-529h-371zM459 334q35 -33 63 -49.5t64 -16.5q68 0 95.5 65.5t27.5 213.5q0 140 -26.5 200t-98.5 60q-58 0 -125 -72v-401z" />
<glyph unicode="q" d="M39 543q0 285 93 430t257 145q178 0 273 -139v117h370v-1506h-370v543q-104 -149 -275 -149q-166 0 -257 137.5t-91 421.5zM412 545q0 -144 26.5 -209.5t98.5 -65.5q55 0 125 70v403q-62 66 -127 66q-69 0 -96 -60t-27 -204z" />
<glyph unicode="r" horiz-adv-x="780" d="M88 0v1096h371v-166h4q96 188 285 188l16 -2v-336q-36 6 -78 6q-126 0 -227 -75v-711h-371z" />
<glyph unicode="s" horiz-adv-x="980" d="M4 147l182 213q71 -59 157.5 -96t156.5 -37q106 0 106 66q0 35 -30 58.5t-78 38t-106 28.5t-116.5 38.5t-106.5 60t-78 100t-30 151.5q0 89 36 158t97.5 110t138 61.5t163.5 20.5q109 0 226.5 -43t197.5 -119l-185 -208q-141 108 -241 108q-88 0 -88 -65q0 -33 30 -55.5 t78 -36.5t106 -28t116 -38.5t106 -60t78 -99t30 -149.5t-37.5 -154t-101.5 -109.5t-145 -63.5t-172 -22q-309 0 -490 172z" />
<glyph unicode="t" horiz-adv-x="794" d="M16 827v269h152v370h371v-370h231v-269h-231v-442q0 -83 24 -108t96 -25q61 0 91 10v-260q-14 -5 -86.5 -9.5t-133.5 -4.5q-112 0 -183.5 17.5t-110.5 57.5t-53.5 92t-14.5 132v540h-152z" />
<glyph unicode="u" d="M80 260v836h371v-721q0 -47 16 -70.5t53 -23.5q65 0 142 69v746h370v-1096h-370v147q-43 -66 -126 -118t-192 -52q-264 0 -264 283z" />
<glyph unicode="v" horiz-adv-x="989" d="M-18 1096h374l93 -422q35 -152 57 -301h4q24 155 57 297l97 426h344l-314 -1098h-399z" />
<glyph unicode="w" horiz-adv-x="1396" d="M-16 1096h360l51 -281q34 -195 49 -323h5q20 158 57 323l61 281h307l60 -273q39 -178 59 -331h4q15 132 50 325l51 279h315l-246 -1098h-336l-131 594h-4l-131 -594h-336z" />
<glyph unicode="x" horiz-adv-x="993" d="M0 0l317 559l-294 537h380l125 -265l109 265h350l-297 -521l314 -575h-379l-140 293l-133 -293h-352z" />
<glyph unicode="y" horiz-adv-x="1011" d="M-31 -381l70 291q111 -23 174 -23q45 0 68.5 15t35.5 53l11 31l-348 1110h387l79 -353q53 -236 70 -344h4q28 162 74 349l84 348h358l-383 -1196q-50 -160 -137.5 -238t-245.5 -78q-181 0 -301 35z" />
<glyph unicode="z" horiz-adv-x="946" d="M35 0v201l411 626h-378v269h819v-211l-414 -625h449v-260h-887z" />
<glyph unicode="{" horiz-adv-x="833" d="M33 420v266q77 0 116 16.5t57.5 63t18.5 139.5v312q0 138 79 218.5t233 80.5h278v-265h-76q-72 0 -103.5 -37t-31.5 -114v-234q0 -145 -40 -213.5t-128 -97.5v-4q88 -29 128 -97.5t40 -213.5v-244q0 -75 32 -110.5t103 -35.5h76v-260h-291q-143 0 -221 81t-78 218v312 q0 70 -9.5 112.5t-33.5 66.5t-58 32t-91 8z" />
<glyph unicode="|" horiz-adv-x="747" d="M186 -410v1926h375v-1926h-375z" />
<glyph unicode="}" horiz-adv-x="833" d="M16 -150h76q72 0 104.5 35.5t32.5 110.5v262q0 98 20 157.5t54 87.5t94 48v4q-60 20 -94 48t-54 87.5t-20 157.5v252q0 77 -32 114t-105 37h-76v265h301q153 0 222 -71t69 -210v-330q0 -93 18 -139.5t57 -63t118 -16.5v-266q-77 0 -116 -16t-58 -63t-19 -140v-330 q0 -281 -278 -281h-314v260z" />
<glyph unicode="~" horiz-adv-x="1024" d="M127 729q0 189 64 278t178 89q49 0 92 -18t67.5 -39.5t54 -39.5t54.5 -18q74 0 74 111h186q0 -189 -64 -278t-178 -89q-49 0 -92 18t-67.5 39.5t-54 39.5t-54.5 18q-74 0 -74 -111h-186z" />
<glyph unicode="&#xa1;" horiz-adv-x="673" d="M104 0l72 1047h307l72 -1047h-451zM131 1182v334h397v-334h-397z" />
<glyph unicode="&#xa2;" horiz-adv-x="1009" d="M37 547q0 118 27 213.5t71.5 158.5t105.5 107t126 65t137 25l24 146h256l-32 -183q97 -43 151.5 -128t83.5 -210l-325 -73q-19 94 -47.5 133t-77.5 39q-69 0 -101.5 -70t-32.5 -223q0 -155 29 -228t103 -73q105 0 137 186l317 -76q-17 -78 -48.5 -141.5t-82.5 -117 t-127.5 -85t-173.5 -35.5l-29 -167h-256l37 213q-125 58 -198.5 187t-73.5 337z" />
<glyph unicode="&#xa3;" horiz-adv-x="1316" d="M0 225q0 134 86 208.5t213 74.5q88 0 182 -53q-5 84 -63 204h-266v209h157q-71 142 -71 262q0 182 121 298t321 116q117 0 202 -29t139 -86.5t84.5 -131.5t45.5 -175l-332 -53q-14 91 -41 136.5t-88 45.5q-44 0 -70 -28t-26 -84q0 -45 13.5 -95t29 -84t45.5 -92h319v-209 h-231q29 -111 29 -204q0 -101 -41 -191q52 -20 90 -20q61 0 87.5 43.5t27.5 173.5h325q-2 -91 -13 -161.5t-37.5 -134.5t-69 -105t-109.5 -65t-156 -24q-154 0 -295 103q-134 -103 -301 -103q-61 0 -115 15t-97.5 44.5t-69 79.5t-25.5 115zM240 236q0 -32 18.5 -51t52.5 -19 q72 0 121 72q-74 67 -125 67q-31 0 -49 -18.5t-18 -50.5z" />
<glyph unicode="&#xa4;" horiz-adv-x="1318" d="M35 483v209h166v107h-166v209h182q43 272 182 404t353 132q220 0 350.5 -122t161.5 -359l-344 -57q-27 229 -164 229q-74 0 -115.5 -56.5t-56.5 -170.5h254v-209h-269v-107h269v-209h-256q16 -110 56.5 -161.5t121.5 -51.5q137 0 176 242l340 -39q-16 -106 -58 -196.5 t-106 -159t-155 -107.5t-199 -39q-212 0 -350.5 125t-186.5 387h-186z" />
<glyph unicode="&#xa5;" horiz-adv-x="1228" d="M-8 1516h389l240 -598h4l239 598h373l-412 -865h273v-209h-305v-106h305v-209h-305v-127h-361v127h-301v209h301v106h-301v209h266z" />
<glyph unicode="&#xa6;" horiz-adv-x="747" d="M186 -410v838h375v-838h-375zM186 678v838h375v-838h-375z" />
<glyph unicode="&#xa7;" d="M78 596q0 94 43 175.5t112 137.5q-92 114 -92 250q0 80 27.5 149t79.5 122.5t134.5 84.5t186.5 31q114 0 196 -26t134 -77.5t82.5 -110.5t54.5 -144l-299 -86q-47 178 -159 178q-99 0 -99 -98q0 -24 13.5 -48.5t28.5 -41.5t52 -42.5t56 -37.5t69 -41q131 -80 185 -126 q159 -135 159 -313q0 -93 -43.5 -175t-113.5 -140q90 -108 90 -248q0 -79 -27.5 -148.5t-79.5 -123t-133.5 -84.5t-183.5 -31q-90 0 -160.5 18.5t-118 48.5t-84.5 78t-59 97.5t-41 116.5l299 86q47 -179 156 -179q94 0 94 99q0 37 -29 73t-65.5 61.5t-98.5 63.5 q-15 8 -22 13q-131 80 -184 124q-160 135 -160 314zM397 662q0 -66 45.5 -114t163.5 -120q52 -31 80 -51q37 47 37 90q0 66 -46 114.5t-163 118.5q-13 8 -39.5 25t-40.5 25q-37 -43 -37 -88z" />
<glyph unicode="&#xa8;" horiz-adv-x="1024" d="M152 1196v332h301v-332h-301zM573 1196v332h299v-332h-299z" />
<glyph unicode="&#xa9;" horiz-adv-x="1490" d="M70 754q0 165 51.5 311t140.5 251.5t215.5 166.5t270.5 61q146 0 271.5 -60t213.5 -163.5t138 -248.5t50 -310q0 -221 -87.5 -402t-243.5 -285t-349 -104t-347 102.5t-239 281t-85 399.5zM242 762q0 -277 141 -456t365 -179t362.5 175t138.5 452q0 182 -63.5 326.5 t-179.5 226.5t-265 82q-224 0 -361.5 -175t-137.5 -452zM426 762q0 217 84.5 331.5t239.5 114.5q129 0 200.5 -77.5t91.5 -210.5l-200 -39q-12 61 -31.5 90.5t-62.5 29.5q-50 0 -75.5 -63.5t-25.5 -175.5q0 -234 101 -234q41 0 64 31t32 100l205 -41q-15 -70 -36.5 -121.5 t-56.5 -93.5t-88.5 -64t-124.5 -22q-149 0 -233 115t-84 330z" />
<glyph unicode="&#xaa;" horiz-adv-x="819" d="M66 948q0 235 405 303v23q0 35 -12 50t-47 15q-93 0 -203 -71l-113 153q144 119 369 119q135 0 196.5 -63.5t61.5 -202.5v-332q0 -136 18 -186h-256q-14 51 -14 106q-79 -119 -217 -119q-82 0 -135 48.5t-53 156.5zM317 999q0 -27 15 -42t39 -15q9 0 18 1.5t16.5 3 t15 5.5t12.5 6.5t12 7t10 6.5t9 7t7 6v135q-154 -36 -154 -121z" />
<glyph unicode="&#xab;" horiz-adv-x="1193" d="M25 545l286 545h344l-274 -545l274 -545h-344zM532 545l287 545h344l-274 -545l274 -545h-344z" />
<glyph unicode="&#xac;" horiz-adv-x="1556" d="M20 563v383l240 -53l-35 344h70v74l344 -35l-53 240h383l-54 -240l345 35v-74h71l-35 -344l240 53v-383l-240 53l35 -344h-71v-67l-345 35l54 -240h-383l53 240l-344 -35v67h-70l35 344zM469 637l16 -172l174 -16v188h-190zM469 872h190v193l-174 -14zM895 449l176 16 l14 172h-190v-188zM895 872h190l-14 179l-176 14v-193z" />
<glyph unicode="&#xad;" horiz-adv-x="655" d="M59 504v262h535v-262h-535z" />
<glyph unicode="&#xae;" horiz-adv-x="1490" d="M70 754q0 165 51.5 311t140.5 251.5t215.5 166.5t270.5 61q146 0 271.5 -60t213.5 -163.5t138 -248.5t50 -310q0 -221 -87.5 -402t-243.5 -285t-349 -104t-347 102.5t-239 281t-85 399.5zM238 762q0 -184 64 -331t181 -230.5t265 -83.5t263.5 81.5t178.5 226.5t63 329 t-64.5 331t-182 230.5t-265.5 83.5q-147 0 -262 -81.5t-178 -226.5t-63 -329zM463 350v850h297q144 0 223.5 -72.5t79.5 -220.5q0 -176 -115 -252l121 -305h-238l-104 273h-41v-273h-223zM686 797h62q52 0 75 23.5t23 76.5q0 52 -23.5 75t-74.5 23h-62v-198z" />
<glyph unicode="&#xaf;" horiz-adv-x="1024" d="M176 1227v266h670v-266h-670z" />
<glyph unicode="&#xb0;" horiz-adv-x="722" d="M59 1219q0 141 84.5 232t216.5 91q133 0 217.5 -89t84.5 -230q0 -142 -84.5 -234t-217.5 -92q-132 0 -216.5 90.5t-84.5 231.5zM256 1221q0 -74 28 -114t76 -40q50 0 78.5 40t28.5 114t-28.5 113.5t-78.5 39.5q-48 0 -76 -39.5t-28 -113.5z" />
<glyph unicode="&#xb1;" horiz-adv-x="1806" d="M25 827v269h153v69q0 48 5.5 88.5t19 83t39 74.5t63 58t95 39.5t130.5 13.5q133 0 177 -11v-270q-32 8 -64 8q-49 0 -72.5 -24.5t-23.5 -81.5v-47h211v69q0 58 8.5 106t32 96t61.5 81t102 53.5t148 20.5q132 0 176 -11v-270q-32 8 -63 8q-49 0 -73 -25t-24 -81v-47h152 v-269h-152v-827h-368v827h-211v-827h-369v827h-153zM1337 0v1516h371v-1516h-371z" />
<glyph unicode="&#xb2;" horiz-adv-x="823" d="M47 1227q122 297 385 297q151 0 230 -76t79 -215q0 -68 -23.5 -125.5t-59 -95.5t-78.5 -73t-80.5 -59.5t-66 -52.5t-34.5 -55h342v-250h-686v58q0 89 22.5 162.5t58 121.5t78.5 88t86 70.5t78.5 60t58 66.5t22.5 80q0 39 -47 39q-57 0 -121 -146z" />
<glyph unicode="&#xb3;" horiz-adv-x="823" d="M33 768l211 115q26 -63 69 -99t82 -36q47 0 74 24t27 64q0 69 -39.5 94.5t-122.5 25.5h-41v160h47q76 0 104.5 25t28.5 73q0 27 -18.5 44.5t-48.5 17.5q-35 0 -78.5 -30t-79.5 -81l-191 135q146 224 367 224q144 0 231.5 -72.5t87.5 -194.5q0 -145 -129 -208 q81 -35 117.5 -91t36.5 -139q0 -148 -100 -229.5t-262 -81.5q-129 0 -224.5 67.5t-148.5 192.5z" />
<glyph unicode="&#xb4;" horiz-adv-x="1024" d="M346 1204l164 350h350l-258 -350h-256z" />
<glyph unicode="&#xb6;" horiz-adv-x="1228" d="M55 1079q0 187 112.5 312t297.5 125h696v-1926h-276v1635h-121v-1635h-275v1059q-203 3 -318.5 115.5t-115.5 314.5z" />
<glyph unicode="&#xb7;" horiz-adv-x="550" d="M70 424v360h411v-360h-411z" />
<glyph unicode="&#xb8;" horiz-adv-x="1024" d="M229 -369l66 127q38 -23 98.5 -38t114.5 -15q37 0 61.5 13.5t24.5 39.5q0 25 -12 35t-41 10q-45 0 -78 -30l-94 43l63 196h148l-31 -108q44 28 121 28q61 0 101 -38t40 -111q0 -91 -79 -155t-204 -64q-175 0 -299 67z" />
<glyph unicode="&#xb9;" horiz-adv-x="692" d="M78 530v246h139v447q-50 -21 -135 -21v252q62 3 98 16t66 43h268v-737h121v-246h-557z" />
<glyph unicode="&#xba;" horiz-adv-x="856" d="M72 1145q0 108 30 188t82 124.5t113 65.5t131 21t130.5 -21t112.5 -65.5t82.5 -124.5t30.5 -188q0 -106 -30.5 -186t-82 -125t-113 -67t-130.5 -22t-130.5 22t-113 67t-82 125t-30.5 186zM332 1145q0 -106 21.5 -155.5t74.5 -49.5t74.5 46.5t21.5 158.5q0 103 -21 149.5 t-75 46.5q-53 0 -74.5 -44.5t-21.5 -151.5z" />
<glyph unicode="&#xbb;" horiz-adv-x="1193" d="M31 0l274 545l-274 545h344l287 -545l-287 -545h-344zM539 0l274 545l-274 545h344l286 -545l-286 -545h-344z" />
<glyph unicode="&#xbc;" horiz-adv-x="1916" d="M78 530v246h139v447q-50 -21 -135 -21v252q62 3 98 16t66 43h268v-737h121v-246h-557zM453 0l768 1516h303l-768 -1516h-303zM1110 186v195l363 602h290v-565h123v-232h-123v-186h-280v186h-373zM1362 410h127v211z" />
<glyph unicode="&#xbd;" horiz-adv-x="1998" d="M78 530v246h139v447q-50 -21 -135 -21v252q62 3 98 16t66 43h268v-737h121v-246h-557zM453 0l768 1516h303l-768 -1516h-303zM1223 705q121 296 385 296q151 0 230 -75.5t79 -214.5q0 -68 -23.5 -125.5t-59 -95.5t-78.5 -73t-80.5 -59.5t-66 -52.5t-34.5 -55h342v-250 h-686v57q0 89 22 162.5t58 122t78.5 88t85.5 70.5t79 60.5t58 66.5t22 80q0 38 -47 38q-57 0 -121 -145z" />
<glyph unicode="&#xbe;" horiz-adv-x="1980" d="M33 768l211 115q26 -63 69 -99t82 -36q47 0 74 24t27 64q0 69 -39.5 94.5t-122.5 25.5h-41v160h47q76 0 104.5 25t28.5 73q0 27 -18.5 44.5t-48.5 17.5q-35 0 -78.5 -30t-79.5 -81l-191 135q146 224 367 224q144 0 231.5 -72.5t87.5 -194.5q0 -145 -129 -208 q81 -35 117.5 -91t36.5 -139q0 -148 -100 -229.5t-262 -81.5q-129 0 -224.5 67.5t-148.5 192.5zM516 0l768 1516h303l-768 -1516h-303zM1174 186v195l362 602h291v-565h123v-232h-123v-186h-281v186h-372zM1425 410h127v211z" />
<glyph unicode="&#xbf;" horiz-adv-x="1062" d="M55 328q0 64 13 117t41.5 96.5t51.5 70.5t63 68l14 14q72 74 101.5 117t42.5 95.5t13 144.5h314q6 -49 6 -123q0 -59 -15 -111t-46 -97.5t-56.5 -74.5t-66.5 -71q-12 -11 -17 -17q-54 -58 -81 -101.5t-27 -93.5q0 -43 26 -65.5t70 -22.5q63 0 113 57t79 136l305 -107 q-62 -183 -194.5 -286t-329.5 -103q-204 0 -312 101t-108 256zM356 1182v334h396v-334h-396z" />
<glyph unicode="&#xc0;" horiz-adv-x="1271" d="M8 0l443 1522h370l443 -1522h-383l-64 256h-389l-66 -256h-354zM287 1954h350l164 -350h-256zM502 549h243l-26 115q-10 40 -26 102t-25 97.5t-20 87t-19 100.5h-4q-10 -64 -23.5 -120.5t-36.5 -139t-35 -127.5z" />
<glyph unicode="&#xc1;" horiz-adv-x="1271" d="M8 0l443 1522h370l443 -1522h-383l-64 256h-389l-66 -256h-354zM469 1604l164 350h350l-258 -350h-256zM502 549h243l-26 115q-10 40 -26 102t-25 97.5t-20 87t-19 100.5h-4q-10 -64 -23.5 -120.5t-36.5 -139t-35 -127.5z" />
<glyph unicode="&#xc2;" horiz-adv-x="1271" d="M8 0l443 1522h370l443 -1522h-383l-64 256h-389l-66 -256h-354zM287 1608l225 346h246l223 -346h-211l-137 125l-135 -125h-211zM502 549h243l-26 115q-10 40 -26 102t-25 97.5t-20 87t-19 100.5h-4q-10 -64 -23.5 -120.5t-36.5 -139t-35 -127.5z" />
<glyph unicode="&#xc3;" horiz-adv-x="1271" d="M8 0l443 1522h370l443 -1522h-383l-64 256h-389l-66 -256h-354zM250 1577q0 189 64 278t178 89q49 0 92 -18t67.5 -39.5t54 -39.5t54.5 -18q74 0 74 110h186q0 -189 -64 -277.5t-178 -88.5q-49 0 -92 18t-67.5 39.5t-54 39.5t-54.5 18q-74 0 -74 -111h-186zM502 549h243 l-26 115q-10 40 -26 102t-25 97.5t-20 87t-19 100.5h-4q-10 -64 -23.5 -120.5t-36.5 -139t-35 -127.5z" />
<glyph unicode="&#xc4;" horiz-adv-x="1271" d="M8 0l443 1522h370l443 -1522h-383l-64 256h-389l-66 -256h-354zM274 1595v332h301v-332h-301zM502 549h243l-26 115q-10 40 -26 102t-25 97.5t-20 87t-19 100.5h-4q-10 -64 -23.5 -120.5t-36.5 -139t-35 -127.5zM696 1595v332h299v-332h-299z" />
<glyph unicode="&#xc5;" horiz-adv-x="1271" d="M8 0l436 1501q-34 55 -34 133q0 102 63 171t162 69t162 -69t63 -171q0 -70 -33 -131l437 -1503h-383l-64 256h-389l-66 -256h-354zM502 549h243l-26 115q-10 40 -26 102t-25 97.5t-20 87t-19 100.5h-4q-10 -64 -23.5 -120.5t-36.5 -139t-35 -127.5zM565 1632 q0 -41 18.5 -69.5t51.5 -28.5t51.5 28.5t18.5 69.5q0 40 -18.5 68.5t-51.5 28.5t-51.5 -28.5t-18.5 -68.5z" />
<glyph unicode="&#xc6;" horiz-adv-x="1865" d="M8 0l682 1516h1106v-320h-532v-264h378v-299h-378v-324h557v-309h-936v391h-332l-170 -391h-375zM670 659h215v490z" />
<glyph unicode="&#xc7;" horiz-adv-x="1259" d="M51 758q0 205 45.5 358t129 245.5t193.5 137.5t247 45q254 0 380 -138.5t158 -404.5l-358 -63q-23 153 -64 218t-129 65q-115 0 -167 -113.5t-52 -349.5q0 -237 54 -355t169 -118q91 0 135.5 67t69.5 236l359 -58q-16 -95 -41.5 -173t-68.5 -149t-100.5 -120.5t-140 -80 t-184.5 -34.5l-20 -69q44 28 120 28q61 0 101.5 -38t40.5 -111q0 -91 -79 -155t-204 -64q-175 0 -299 67l66 127q38 -23 98.5 -38t114.5 -15q37 0 61.5 13.5t24.5 39.5q0 25 -12.5 35t-41.5 10q-44 0 -77 -30l-95 43l54 166q-112 18 -200 72t-153.5 147t-100 234t-34.5 323z " />
<glyph unicode="&#xc8;" horiz-adv-x="1095" d="M111 0v1516h915v-320h-534v-264h380v-299h-380v-324h559v-309h-940zM199 1954h350l164 -350h-256z" />
<glyph unicode="&#xc9;" horiz-adv-x="1095" d="M111 0v1516h915v-320h-534v-264h380v-299h-380v-324h559v-309h-940zM381 1604l164 350h350l-258 -350h-256z" />
<glyph unicode="&#xca;" horiz-adv-x="1095" d="M111 0v1516h915v-320h-534v-264h380v-299h-380v-324h559v-309h-940zM219 1608l225 346h246l223 -346h-211l-137 125l-135 -125h-211z" />
<glyph unicode="&#xcb;" horiz-adv-x="1095" d="M111 0v1516h915v-320h-534v-264h380v-299h-380v-324h559v-309h-940zM207 1595v332h301v-332h-301zM629 1595v332h299v-332h-299z" />
<glyph unicode="&#xcc;" horiz-adv-x="622" d="M-37 1954h350l164 -350h-256zM121 0v1516h381v-1516h-381z" />
<glyph unicode="&#xcd;" horiz-adv-x="622" d="M121 0v1516h381v-1516h-381zM145 1604l164 350h350l-258 -350h-256z" />
<glyph unicode="&#xce;" horiz-adv-x="622" d="M-37 1608l225 346h246l223 -346h-211l-137 125l-135 -125h-211zM121 0v1516h381v-1516h-381z" />
<glyph unicode="&#xcf;" horiz-adv-x="622" d="M-49 1595v332h301v-332h-301zM121 0v1516h381v-1516h-381zM373 1595v332h299v-332h-299z" />
<glyph unicode="&#xd0;" horiz-adv-x="1310" d="M12 635v287h99v594h428q128 0 230 -19t196.5 -70.5t157 -134t100 -216.5t37.5 -312q0 -130 -19.5 -237.5t-54 -186t-86 -138t-111.5 -97.5t-135 -62t-150.5 -33.5t-164.5 -9.5h-428v635h-99zM492 315h79q178 0 242 96.5t64 352.5q0 246 -64.5 339t-243.5 93h-77v-274h215 v-287h-215v-320z" />
<glyph unicode="&#xd1;" horiz-adv-x="1359" d="M111 0v1516h381l284 -558q63 -124 119 -256h4v814h344v-1516h-352l-336 614q-56 104 -96 195h-4v-809h-344zM295 1577q0 189 64 278t178 89q49 0 92 -18t67.5 -39.5t54 -39.5t54.5 -18q74 0 74 110h186q0 -189 -64 -277.5t-178 -88.5q-49 0 -92 18t-67.5 39.5t-54 39.5 t-54.5 18q-74 0 -74 -111h-186z" />
<glyph unicode="&#xd2;" horiz-adv-x="1359" d="M51 758q0 163 33.5 296t91.5 223t138.5 151t171.5 88.5t194 27.5q102 0 193 -27.5t171 -88.5t138 -151t91.5 -223t33.5 -296t-33.5 -296t-91.5 -223t-138 -151.5t-171 -89t-193 -27.5q-103 0 -194 27.5t-171.5 89t-138.5 151.5t-91.5 223t-33.5 296zM332 1954h350 l164 -350h-256zM434 758q0 -230 61.5 -351.5t184.5 -121.5q244 0 244 473q0 463 -244 463q-246 0 -246 -463z" />
<glyph unicode="&#xd3;" horiz-adv-x="1359" d="M51 758q0 163 33.5 296t91.5 223t138.5 151t171.5 88.5t194 27.5q102 0 193 -27.5t171 -88.5t138 -151t91.5 -223t33.5 -296t-33.5 -296t-91.5 -223t-138 -151.5t-171 -89t-193 -27.5q-103 0 -194 27.5t-171.5 89t-138.5 151.5t-91.5 223t-33.5 296zM434 758 q0 -230 61.5 -351.5t184.5 -121.5q244 0 244 473q0 463 -244 463q-246 0 -246 -463zM514 1604l164 350h350l-258 -350h-256z" />
<glyph unicode="&#xd4;" horiz-adv-x="1359" d="M51 758q0 163 33.5 296t91.5 223t138.5 151t171.5 88.5t194 27.5q102 0 193 -27.5t171 -88.5t138 -151t91.5 -223t33.5 -296t-33.5 -296t-91.5 -223t-138 -151.5t-171 -89t-193 -27.5q-103 0 -194 27.5t-171.5 89t-138.5 151.5t-91.5 223t-33.5 296zM332 1608l225 346 h246l223 -346h-211l-137 125l-135 -125h-211zM434 758q0 -230 61.5 -351.5t184.5 -121.5q244 0 244 473q0 463 -244 463q-246 0 -246 -463z" />
<glyph unicode="&#xd5;" horiz-adv-x="1359" d="M51 758q0 163 33.5 296t91.5 223t138.5 151t171.5 88.5t194 27.5q102 0 193 -27.5t171 -88.5t138 -151t91.5 -223t33.5 -296t-33.5 -296t-91.5 -223t-138 -151.5t-171 -89t-193 -27.5q-103 0 -194 27.5t-171.5 89t-138.5 151.5t-91.5 223t-33.5 296zM295 1577 q0 189 64 278t178 89q49 0 92 -18t67.5 -39.5t54 -39.5t54.5 -18q74 0 74 110h186q0 -189 -64 -277.5t-178 -88.5q-49 0 -92 18t-67.5 39.5t-54 39.5t-54.5 18q-74 0 -74 -111h-186zM434 758q0 -230 61.5 -351.5t184.5 -121.5q244 0 244 473q0 463 -244 463 q-246 0 -246 -463z" />
<glyph unicode="&#xd6;" horiz-adv-x="1359" d="M51 758q0 163 33.5 296t91.5 223t138.5 151t171.5 88.5t194 27.5q102 0 193 -27.5t171 -88.5t138 -151t91.5 -223t33.5 -296t-33.5 -296t-91.5 -223t-138 -151.5t-171 -89t-193 -27.5q-103 0 -194 27.5t-171.5 89t-138.5 151.5t-91.5 223t-33.5 296zM319 1595v332h302 v-332h-302zM434 758q0 -230 61.5 -351.5t184.5 -121.5q244 0 244 473q0 463 -244 463q-246 0 -246 -463zM741 1595v332h299v-332h-299z" />
<glyph unicode="&#xd7;" horiz-adv-x="1187" d="M106 424l287 287l-287 286l201 201l287 -287l287 287l200 -201l-286 -286l286 -287l-200 -201l-287 287l-287 -287z" />
<glyph unicode="&#xd8;" horiz-adv-x="1359" d="M23 23l153 219q-125 197 -125 516q0 163 33.5 296t91.5 223t138.5 151t171.5 88.5t194 27.5q200 0 340 -100l129 174l186 -125l-153 -217q125 -197 125 -518q0 -163 -33.5 -296t-91.5 -223t-138 -151.5t-171 -89t-193 -27.5q-199 0 -346 103l-123 -176zM426 758 q0 -82 10 -164l395 563q-59 68 -151 68q-124 0 -189 -119.5t-65 -347.5zM520 358q62 -77 160 -77q123 0 187.5 124t64.5 353q0 84 -10 166z" />
<glyph unicode="&#xd9;" horiz-adv-x="1261" d="M88 537v979h381v-961q0 -141 40 -200.5t132 -59.5q91 0 130.5 59.5t39.5 198.5v963h363v-977q0 -284 -128.5 -424t-410.5 -140t-414.5 141.5t-132.5 420.5zM283 1954h350l164 -350h-256z" />
<glyph unicode="&#xda;" horiz-adv-x="1261" d="M88 537v979h381v-961q0 -141 40 -200.5t132 -59.5q91 0 130.5 59.5t39.5 198.5v963h363v-977q0 -284 -128.5 -424t-410.5 -140t-414.5 141.5t-132.5 420.5zM465 1604l164 350h350l-258 -350h-256z" />
<glyph unicode="&#xdb;" horiz-adv-x="1261" d="M88 537v979h381v-961q0 -141 40 -200.5t132 -59.5q91 0 130.5 59.5t39.5 198.5v963h363v-977q0 -284 -128.5 -424t-410.5 -140t-414.5 141.5t-132.5 420.5zM289 1608l225 346h246l223 -346h-211l-137 125l-135 -125h-211z" />
<glyph unicode="&#xdc;" horiz-adv-x="1261" d="M88 537v979h381v-961q0 -141 40 -200.5t132 -59.5q91 0 130.5 59.5t39.5 198.5v963h363v-977q0 -284 -128.5 -424t-410.5 -140t-414.5 141.5t-132.5 420.5zM270 1595v332h301v-332h-301zM692 1595v332h299v-332h-299z" />
<glyph unicode="&#xdd;" horiz-adv-x="1228" d="M-8 1516h389l240 -592h4l239 592h373l-434 -936v-580h-381v580zM449 1604l163 350h351l-258 -350h-256z" />
<glyph unicode="&#xde;" horiz-adv-x="1193" d="M111 0v1516h374v-230h101q90 0 167 -13.5t151.5 -50t126 -93t83 -149t31.5 -212.5q0 -124 -34 -219t-87.5 -151.5t-129.5 -92.5t-150.5 -48.5t-159.5 -12.5h-99v-244h-374zM485 541h109q104 0 146 53t42 166q0 110 -42.5 160.5t-147.5 50.5h-107v-430z" />
<glyph unicode="&#xdf;" horiz-adv-x="1253" d="M98 0v1008q0 254 142.5 381t388.5 127q221 0 350 -98t129 -281q0 -127 -65.5 -213.5t-161.5 -122.5q170 -31 258 -136t88 -245q0 -196 -112 -318t-310 -122q-84 0 -169.5 21t-139.5 50l112 254q84 -39 152 -39q56 0 88.5 40t32.5 114q0 113 -74 165t-248 64v238 q109 0 157 45.5t48 146.5q0 57 -35 95t-102 38q-160 0 -160 -196v-1016h-369z" />
<glyph unicode="&#xe0;" horiz-adv-x="1044" d="M27 281q0 329 579 426v32q0 49 -17 70.5t-67 21.5q-130 0 -291 -102l-159 221q99 80 234.5 124t289.5 44q195 0 282 -89.5t87 -289.5v-473q0 -187 26 -266h-364q-21 68 -21 150q-112 -162 -309 -162q-55 0 -102 15.5t-85.5 48.5t-60.5 91.5t-22 137.5zM174 1554h350 l164 -350h-256zM385 352q0 -39 21.5 -60.5t56.5 -21.5q75 0 143 58v192q-115 -26 -168 -66t-53 -102z" />
<glyph unicode="&#xe1;" horiz-adv-x="1044" d="M27 281q0 329 579 426v32q0 49 -17 70.5t-67 21.5q-130 0 -291 -102l-159 221q99 80 234.5 124t289.5 44q195 0 282 -89.5t87 -289.5v-473q0 -187 26 -266h-364q-21 68 -21 150q-112 -162 -309 -162q-55 0 -102 15.5t-85.5 48.5t-60.5 91.5t-22 137.5zM356 1204l164 350 h350l-258 -350h-256zM385 352q0 -39 21.5 -60.5t56.5 -21.5q75 0 143 58v192q-115 -26 -168 -66t-53 -102z" />
<glyph unicode="&#xe2;" horiz-adv-x="1044" d="M27 281q0 329 579 426v32q0 49 -17 70.5t-67 21.5q-130 0 -291 -102l-159 221q99 80 234.5 124t289.5 44q195 0 282 -89.5t87 -289.5v-473q0 -187 26 -266h-364q-21 68 -21 150q-112 -162 -309 -162q-55 0 -102 15.5t-85.5 48.5t-60.5 91.5t-22 137.5zM174 1208l225 346 h246l223 -346h-211l-137 125l-135 -125h-211zM385 352q0 -39 21.5 -60.5t56.5 -21.5q75 0 143 58v192q-115 -26 -168 -66t-53 -102z" />
<glyph unicode="&#xe3;" horiz-adv-x="1044" d="M27 281q0 329 579 426v32q0 49 -17 70.5t-67 21.5q-130 0 -291 -102l-159 221q99 80 234.5 124t289.5 44q195 0 282 -89.5t87 -289.5v-473q0 -187 26 -266h-364q-21 68 -21 150q-112 -162 -309 -162q-55 0 -102 15.5t-85.5 48.5t-60.5 91.5t-22 137.5zM137 1178 q0 189 64 277.5t178 88.5q49 0 92 -18t67.5 -39t54 -39t54.5 -18q74 0 74 110h186q0 -366 -241 -366q-49 0 -92 18t-68 39t-54.5 39t-54.5 18q-73 0 -73 -110h-187zM385 352q0 -39 21.5 -60.5t56.5 -21.5q75 0 143 58v192q-115 -26 -168 -66t-53 -102z" />
<glyph unicode="&#xe4;" horiz-adv-x="1044" d="M27 281q0 329 579 426v32q0 49 -17 70.5t-67 21.5q-130 0 -291 -102l-159 221q99 80 234.5 124t289.5 44q195 0 282 -89.5t87 -289.5v-473q0 -187 26 -266h-364q-21 68 -21 150q-112 -162 -309 -162q-55 0 -102 15.5t-85.5 48.5t-60.5 91.5t-22 137.5zM162 1196v332h301 v-332h-301zM385 352q0 -39 21.5 -60.5t56.5 -21.5q75 0 143 58v192q-115 -26 -168 -66t-53 -102zM584 1196v332h299v-332h-299z" />
<glyph unicode="&#xe5;" horiz-adv-x="1044" d="M27 281q0 329 579 426v32q0 49 -17 70.5t-67 21.5q-130 0 -291 -102l-159 221q99 80 234.5 124t289.5 44q195 0 282 -89.5t87 -289.5v-473q0 -187 26 -266h-364q-21 68 -21 150q-112 -162 -309 -162q-55 0 -102 15.5t-85.5 48.5t-60.5 91.5t-22 137.5zM297 1411 q0 102 63 171t162 69t162.5 -69t63.5 -171t-63.5 -171t-162.5 -69t-162 69t-63 171zM385 352q0 -39 21.5 -60.5t56.5 -21.5q75 0 143 58v192q-115 -26 -168 -66t-53 -102zM453 1409q0 -41 18 -69.5t51 -28.5t51.5 28.5t18.5 69.5q0 40 -18.5 68t-51.5 28t-51 -28t-18 -68z " />
<glyph unicode="&#xe6;" horiz-adv-x="1595" d="M27 281q0 329 579 426v32q0 49 -17 70.5t-67 21.5q-130 0 -291 -102l-159 221q99 80 234.5 124t289.5 44q179 0 246 -82q116 82 252 82q78 0 145 -19t126.5 -64t102 -113t67 -171.5t24.5 -234.5v-67h-601q10 -107 51.5 -154t114.5 -47q64 0 127.5 35t98.5 77l209 -176 q-172 -207 -451 -207q-294 0 -420 213q-81 -100 -172.5 -151t-218.5 -51q-55 0 -102 15.5t-85.5 48.5t-60.5 91.5t-22 137.5zM385 352q0 -39 21.5 -60.5t56.5 -21.5q87 0 166 72q-20 86 -23 174q-111 -27 -166 -66.5t-55 -97.5zM961 649h264q-7 106 -39 148.5t-92 42.5 q-112 0 -133 -191z" />
<glyph unicode="&#xe7;" horiz-adv-x="1009" d="M37 547q0 124 29.5 223.5t78.5 163t115.5 106t136 60.5t144.5 18q85 0 153 -19t115.5 -51.5t83 -81.5t57 -103t37.5 -122l-325 -73q-19 93 -47 130.5t-78 37.5q-69 0 -99 -67.5t-30 -221.5q0 -156 27 -226.5t100 -70.5q106 0 137 182l317 -76q-17 -77 -48.5 -140.5 t-81.5 -117t-126 -85.5t-172 -36l-20 -73q44 28 121 28q61 0 101 -38t40 -111q0 -91 -79 -155t-204 -64q-175 0 -299 67l66 127q38 -23 98.5 -38t114.5 -15q37 0 61.5 13.5t24.5 39.5q0 25 -12.5 35t-41.5 10q-44 0 -77 -30l-95 43l56 172q-79 16 -145 55.5t-120 105 t-84 167.5t-30 231z" />
<glyph unicode="&#xe8;" horiz-adv-x="1036" d="M37 547q0 124 30.5 224t79.5 163.5t115 106t133.5 60t139.5 17.5q78 0 144.5 -19t126.5 -64t102 -113t66.5 -171.5t24.5 -234.5v-67h-600q10 -107 51.5 -154t114.5 -47q64 0 127.5 35t98.5 77l208 -176q-172 -207 -450 -207q-108 0 -197.5 31t-161.5 96.5t-112.5 178 t-40.5 264.5zM170 1554h350l164 -350h-256zM401 649h265q-7 106 -39 148.5t-92 42.5q-113 0 -134 -191z" />
<glyph unicode="&#xe9;" horiz-adv-x="1036" d="M37 547q0 124 30.5 224t79.5 163.5t115 106t133.5 60t139.5 17.5q78 0 144.5 -19t126.5 -64t102 -113t66.5 -171.5t24.5 -234.5v-67h-600q10 -107 51.5 -154t114.5 -47q64 0 127.5 35t98.5 77l208 -176q-172 -207 -450 -207q-108 0 -197.5 31t-161.5 96.5t-112.5 178 t-40.5 264.5zM352 1204l164 350h350l-258 -350h-256zM401 649h265q-7 106 -39 148.5t-92 42.5q-113 0 -134 -191z" />
<glyph unicode="&#xea;" horiz-adv-x="1036" d="M37 547q0 124 30.5 224t79.5 163.5t115 106t133.5 60t139.5 17.5q78 0 144.5 -19t126.5 -64t102 -113t66.5 -171.5t24.5 -234.5v-67h-600q10 -107 51.5 -154t114.5 -47q64 0 127.5 35t98.5 77l208 -176q-172 -207 -450 -207q-108 0 -197.5 31t-161.5 96.5t-112.5 178 t-40.5 264.5zM170 1208l225 346h246l223 -346h-211l-137 125l-135 -125h-211zM401 649h265q-7 106 -39 148.5t-92 42.5q-113 0 -134 -191z" />
<glyph unicode="&#xeb;" horiz-adv-x="1036" d="M37 547q0 124 30.5 224t79.5 163.5t115 106t133.5 60t139.5 17.5q78 0 144.5 -19t126.5 -64t102 -113t66.5 -171.5t24.5 -234.5v-67h-600q10 -107 51.5 -154t114.5 -47q64 0 127.5 35t98.5 77l208 -176q-172 -207 -450 -207q-108 0 -197.5 31t-161.5 96.5t-112.5 178 t-40.5 264.5zM158 1196v332h301v-332h-301zM401 649h265q-7 106 -39 148.5t-92 42.5q-113 0 -134 -191zM580 1196v332h299v-332h-299z" />
<glyph unicode="&#xec;" horiz-adv-x="567" d="M-66 1554h351l164 -350h-256zM98 0v1096h371v-1096h-371z" />
<glyph unicode="&#xed;" horiz-adv-x="567" d="M98 0v1096h371v-1096h-371zM117 1204l164 350h350l-258 -350h-256z" />
<glyph unicode="&#xee;" horiz-adv-x="567" d="M-66 1208l226 346h246l223 -346h-211l-137 125l-136 -125h-211zM98 0v1096h371v-1096h-371z" />
<glyph unicode="&#xef;" horiz-adv-x="567" d="M-78 1196v332h301v-332h-301zM98 0v1096h371v-1096h-371zM344 1196v332h299v-332h-299z" />
<glyph unicode="&#xf0;" horiz-adv-x="1087" d="M39 496q0 245 118.5 373t309.5 128q68 0 139 -30.5t113 -85.5q-17 121 -96 247l-121 -69l-99 172l99 55q-35 40 -105 98l191 195q106 -76 170 -145l119 69l98 -170l-94 -55q168 -270 168 -696q0 -294 -132.5 -449.5t-369.5 -155.5q-234 0 -371 138t-137 381zM406 500 q0 -136 35 -191t104 -55q68 0 103.5 58t35.5 190q0 252 -139 252q-69 0 -104 -57.5t-35 -196.5z" />
<glyph unicode="&#xf1;" d="M88 0v1096h371v-148q41 66 124 118t193 52q264 0 264 -282v-836h-370v713q0 94 -70 94q-57 0 -141 -70v-737h-371zM174 1178q0 189 64 277.5t178 88.5q49 0 92 -18t67.5 -39t54 -39t54.5 -18q74 0 74 110h186q0 -189 -64 -277.5t-178 -88.5q-49 0 -92 18t-67.5 39t-54 39 t-54.5 18q-74 0 -74 -110h-186z" />
<glyph unicode="&#xf2;" horiz-adv-x="1091" d="M37 547q0 124 28.5 223t76.5 163t114.5 106.5t138 60.5t150.5 18t150 -18t137.5 -60.5t114.5 -106.5t77 -163t29 -223q0 -123 -29 -221t-77 -162.5t-114.5 -107t-137.5 -61t-150 -18.5t-150 18.5t-137.5 61t-114.5 107t-77 162.5t-29 221zM197 1554h350l164 -350h-256z M408 547q0 -151 30 -221t107 -70q76 0 106.5 66.5t30.5 224.5q0 148 -30 215t-107 67q-75 0 -106 -64t-31 -218z" />
<glyph unicode="&#xf3;" horiz-adv-x="1091" d="M37 547q0 124 28.5 223t76.5 163t114.5 106.5t138 60.5t150.5 18t150 -18t137.5 -60.5t114.5 -106.5t77 -163t29 -223q0 -123 -29 -221t-77 -162.5t-114.5 -107t-137.5 -61t-150 -18.5t-150 18.5t-137.5 61t-114.5 107t-77 162.5t-29 221zM379 1204l164 350h350 l-258 -350h-256zM408 547q0 -151 30 -221t107 -70q76 0 106.5 66.5t30.5 224.5q0 148 -30 215t-107 67q-75 0 -106 -64t-31 -218z" />
<glyph unicode="&#xf4;" horiz-adv-x="1091" d="M37 547q0 124 28.5 223t76.5 163t114.5 106.5t138 60.5t150.5 18t150 -18t137.5 -60.5t114.5 -106.5t77 -163t29 -223q0 -123 -29 -221t-77 -162.5t-114.5 -107t-137.5 -61t-150 -18.5t-150 18.5t-137.5 61t-114.5 107t-77 162.5t-29 221zM197 1208l225 346h246l223 -346 h-211l-137 125l-135 -125h-211zM408 547q0 -151 30 -221t107 -70q76 0 106.5 66.5t30.5 224.5q0 148 -30 215t-107 67q-75 0 -106 -64t-31 -218z" />
<glyph unicode="&#xf5;" horiz-adv-x="1091" d="M37 547q0 124 28.5 223t76.5 163t114.5 106.5t138 60.5t150.5 18t150 -18t137.5 -60.5t114.5 -106.5t77 -163t29 -223q0 -123 -29 -221t-77 -162.5t-114.5 -107t-137.5 -61t-150 -18.5t-150 18.5t-137.5 61t-114.5 107t-77 162.5t-29 221zM160 1178q0 366 241 366 q49 0 92 -18t68 -39t54.5 -39t54.5 -18q73 0 73 110h187q0 -189 -64 -277.5t-178 -88.5q-49 0 -92 18t-67.5 39t-54 39t-54.5 18q-74 0 -74 -110h-186zM408 547q0 -151 30 -221t107 -70q76 0 106.5 66.5t30.5 224.5q0 148 -30 215t-107 67q-75 0 -106 -64t-31 -218z" />
<glyph unicode="&#xf6;" horiz-adv-x="1091" d="M37 547q0 124 28.5 223t76.5 163t114.5 106.5t138 60.5t150.5 18t150 -18t137.5 -60.5t114.5 -106.5t77 -163t29 -223q0 -123 -29 -221t-77 -162.5t-114.5 -107t-137.5 -61t-150 -18.5t-150 18.5t-137.5 61t-114.5 107t-77 162.5t-29 221zM184 1196v332h301v-332h-301z M408 547q0 -151 30 -221t107 -70q76 0 106.5 66.5t30.5 224.5q0 148 -30 215t-107 67q-75 0 -106 -64t-31 -218zM606 1196v332h299v-332h-299z" />
<glyph unicode="&#xf7;" horiz-adv-x="1187" d="M115 559v303h958v-303h-958zM444 172v281h299v-281h-299zM444 967v278h299v-278h-299z" />
<glyph unicode="&#xf8;" horiz-adv-x="1091" d="M37 547q0 124 28.5 223t76.5 163t114.5 106.5t138 60.5t150.5 18q131 0 239 -51l97 127l157 -102l-100 -148q115 -148 115 -397q0 -123 -29 -221t-77 -162.5t-114.5 -107t-137.5 -61t-150 -18.5q-140 0 -250 58l-88 -125l-156 104l96 144q-110 146 -110 389zM393 547 q0 -40 2 -58l226 324q-33 23 -76 23q-77 0 -114.5 -69t-37.5 -220zM457 285q35 -35 88 -35q77 0 114 71t37 226q0 48 -2 71z" />
<glyph unicode="&#xf9;" d="M80 260v836h371v-721q0 -47 16 -70.5t53 -23.5q65 0 142 69v746h370v-1096h-370v147q-43 -66 -126 -118t-192 -52q-264 0 -264 283zM211 1554h350l164 -350h-256z" />
<glyph unicode="&#xfa;" d="M80 260v836h371v-721q0 -47 16 -70.5t53 -23.5q65 0 142 69v746h370v-1096h-370v147q-43 -66 -126 -118t-192 -52q-264 0 -264 283zM393 1204l164 350h350l-258 -350h-256z" />
<glyph unicode="&#xfb;" d="M80 260v836h371v-721q0 -47 16 -70.5t53 -23.5q65 0 142 69v746h370v-1096h-370v147q-43 -66 -126 -118t-192 -52q-264 0 -264 283zM207 1208l225 346h246l223 -346h-211l-137 125l-135 -125h-211z" />
<glyph unicode="&#xfc;" d="M80 260v836h371v-721q0 -47 16 -70.5t53 -23.5q65 0 142 69v746h370v-1096h-370v147q-43 -66 -126 -118t-192 -52q-264 0 -264 283zM193 1196v332h301v-332h-301zM614 1196v332h299v-332h-299z" />
<glyph unicode="&#xfd;" horiz-adv-x="1011" d="M-31 -381l70 291q111 -23 174 -23q45 0 68.5 15t35.5 53l11 31l-348 1110h387l79 -353q53 -236 70 -344h4q28 162 74 349l84 348h358l-383 -1196q-50 -160 -137.5 -238t-245.5 -78q-181 0 -301 35zM340 1204l164 350h350l-258 -350h-256z" />
<glyph unicode="&#xfe;" d="M88 -410v1926h371v-566q106 168 276 168q163 0 254.5 -142.5t91.5 -426.5t-92.5 -424.5t-257.5 -140.5q-176 0 -272 135v-529h-371zM459 334q35 -33 63 -49.5t64 -16.5q68 0 95.5 65.5t27.5 213.5q0 140 -26.5 200t-98.5 60q-58 0 -125 -72v-401z" />
<glyph unicode="&#xff;" horiz-adv-x="1011" d="M-31 -381l70 291q111 -23 174 -23q45 0 68.5 15t35.5 53l11 31l-348 1110h387l79 -353q53 -236 70 -344h4q28 162 74 349l84 348h358l-383 -1196q-50 -160 -137.5 -238t-245.5 -78q-181 0 -301 35zM152 1196v332h301v-332h-301zM573 1196v332h299v-332h-299z" />
<glyph unicode="&#x152;" horiz-adv-x="1910" d="M51 758q0 163 33.5 296t91.5 223t138.5 151t171.5 88.5t194 27.5q191 0 287 -112v84h874v-320h-534v-264h381v-299h-381v-324h559v-309h-899v82q-90 -111 -287 -111q-103 0 -194 27.5t-171.5 89t-138.5 151.5t-91.5 223t-33.5 296zM434 758q0 -230 61.5 -351.5 t184.5 -121.5q244 0 244 473q0 463 -244 463q-246 0 -246 -463z" />
<glyph unicode="&#x153;" horiz-adv-x="1671" d="M37 547q0 124 28.5 223t76.5 163t114.5 106.5t138 60.5t150.5 18q191 0 317 -123q126 123 307 123q78 0 145 -19t126.5 -64t102 -113t67 -171.5t24.5 -234.5v-67h-600q10 -107 51.5 -154t114.5 -47q63 0 126.5 35t98.5 77l209 -176q-172 -207 -450 -207q-203 0 -328 119 q-122 -119 -311 -119q-79 0 -150 18.5t-137.5 61t-114.5 107t-77 162.5t-29 221zM408 547q0 -151 30 -221t107 -70q76 0 106.5 66.5t30.5 224.5q0 148 -30 215t-107 67q-75 0 -106 -64t-31 -218zM1036 649h264q-7 106 -39 148.5t-92 42.5q-112 0 -133 -191z" />
<glyph unicode="&#x178;" horiz-adv-x="1228" d="M-8 1516h389l240 -592h4l239 592h373l-434 -936v-580h-381v580zM254 1595v332h301v-332h-301zM676 1595v332h299v-332h-299z" />
<glyph unicode="&#x2c6;" horiz-adv-x="1024" d="M164 1208l225 346h246l223 -346h-211l-137 125l-135 -125h-211z" />
<glyph unicode="&#x2dc;" horiz-adv-x="1024" d="M127 1178q0 189 64 277.5t178 88.5q49 0 92 -18t67.5 -39t54 -39t54.5 -18q74 0 74 110h186q0 -189 -64 -277.5t-178 -88.5q-49 0 -92 18t-67.5 39t-54 39t-54.5 18q-74 0 -74 -110h-186z" />
<glyph unicode="&#x2000;" horiz-adv-x="977" />
<glyph unicode="&#x2001;" horiz-adv-x="1954" />
<glyph unicode="&#x2002;" horiz-adv-x="977" />
<glyph unicode="&#x2003;" horiz-adv-x="1954" />
<glyph unicode="&#x2004;" horiz-adv-x="651" />
<glyph unicode="&#x2005;" horiz-adv-x="488" />
<glyph unicode="&#x2006;" horiz-adv-x="325" />
<glyph unicode="&#x2007;" horiz-adv-x="325" />
<glyph unicode="&#x2008;" horiz-adv-x="244" />
<glyph unicode="&#x2009;" horiz-adv-x="390" />
<glyph unicode="&#x200a;" horiz-adv-x="108" />
<glyph unicode="&#x2010;" horiz-adv-x="655" d="M59 504v262h535v-262h-535z" />
<glyph unicode="&#x2011;" horiz-adv-x="655" d="M59 504v262h535v-262h-535z" />
<glyph unicode="&#x2012;" horiz-adv-x="655" d="M59 504v262h535v-262h-535z" />
<glyph unicode="&#x2013;" horiz-adv-x="1212" d="M78 475v311h1057v-311h-1057z" />
<glyph unicode="&#x2014;" horiz-adv-x="1597" d="M74 475v311h1450v-311h-1450z" />
<glyph unicode="&#x2018;" horiz-adv-x="518" d="M78 895v336l162 285h176l-105 -261h129v-360h-362z" />
<glyph unicode="&#x2019;" horiz-adv-x="518" d="M78 1155v361h362v-336l-164 -285h-174l103 260h-127z" />
<glyph unicode="&#x201a;" horiz-adv-x="518" d="M78 0v360h362v-335l-164 -285h-174l103 260h-127z" />
<glyph unicode="&#x201c;" horiz-adv-x="1011" d="M78 895v336l162 285h176l-105 -261h129v-360h-362zM571 895v336l164 285h174l-102 -261h127v-360h-363z" />
<glyph unicode="&#x201d;" horiz-adv-x="1011" d="M78 1155v361h362v-336l-164 -285h-174l103 260h-127zM571 1155v361h363v-336l-162 -285h-176l104 260h-129z" />
<glyph unicode="&#x201e;" horiz-adv-x="1011" d="M78 0v360h362v-335l-164 -285h-174l103 260h-127zM571 0v360h363v-335l-162 -285h-176l104 260h-129z" />
<glyph unicode="&#x2022;" horiz-adv-x="948" d="M201 717q0 118 77.5 196t194.5 78q119 0 197 -78t78 -196q0 -117 -78.5 -195t-196.5 -78q-117 0 -194.5 78t-77.5 195z" />
<glyph unicode="&#x2026;" horiz-adv-x="1529" d="M70 0v360h370v-360h-370zM580 0v360h370v-360h-370zM1090 0v360h370v-360h-370z" />
<glyph unicode="&#x202f;" horiz-adv-x="390" />
<glyph unicode="&#x2039;" horiz-adv-x="686" d="M25 545l286 545h344l-274 -545l274 -545h-344z" />
<glyph unicode="&#x203a;" horiz-adv-x="686" d="M31 0l274 545l-274 545h344l287 -545l-287 -545h-344z" />
<glyph unicode="&#x205f;" horiz-adv-x="488" />
<glyph unicode="&#x20ac;" horiz-adv-x="1318" d="M35 483v209h166v107h-166v209h182q43 272 182 404t353 132q220 0 350.5 -122t161.5 -359l-344 -57q-27 229 -164 229q-74 0 -115.5 -56.5t-56.5 -170.5h254v-209h-269v-107h269v-209h-256q16 -110 56.5 -161.5t121.5 -51.5q137 0 176 242l340 -39q-16 -106 -58 -196.5 t-106 -159t-155 -107.5t-199 -39q-212 0 -350.5 125t-186.5 387h-186z" />
<glyph unicode="&#x2122;" horiz-adv-x="1654" d="M45 1296v220h606v-220h-182v-647h-240v647h-184zM739 649v867h330l96 -515l97 515h325v-867h-233v518l-101 -518h-196l-103 512v-512h-215z" />
<glyph unicode="&#x25fc;" horiz-adv-x="1095" d="M0 0v1096h1096v-1096h-1096z" />
<glyph unicode="&#xfb03;" horiz-adv-x="1806" d="M25 827v269h153v69q0 48 5.5 88.5t19 83t39 74.5t63 58t95 39.5t130.5 13.5q133 0 177 -11v-270q-32 8 -64 8q-49 0 -72.5 -24.5t-23.5 -81.5v-47h211v69q0 58 8.5 106t32 96t61.5 81t102 53.5t148 20.5q132 0 176 -11v-270q-32 8 -63 8q-49 0 -73 -25t-24 -81v-47h152 v-269h-152v-827h-368v827h-211v-827h-369v827h-153zM1337 0v1096h371v-1096h-371zM1337 1198v303h371v-303h-371z" />
<glyph unicode="&#xfb04;" horiz-adv-x="1806" d="M25 827v269h153v69q0 48 5.5 88.5t19 83t39 74.5t63 58t95 39.5t130.5 13.5q133 0 177 -11v-270q-32 8 -64 8q-49 0 -72.5 -24.5t-23.5 -81.5v-47h211v69q0 58 8.5 106t32 96t61.5 81t102 53.5t148 20.5q132 0 176 -11v-270q-32 8 -63 8q-49 0 -73 -25t-24 -81v-47h152 v-269h-152v-827h-368v827h-211v-827h-369v827h-153zM1337 0v1516h371v-1516h-371z" />
</font>
</defs>
</svg>
